<svg xmlns="http://www.w3.org/2000/svg" width="136.9" height="35.042" viewBox="0 0 136.9 35.042">
  <g id="Logo" transform="translate(6980 5155)">
    <g id="image2vector_2_" data-name="image2vector(2)" transform="translate(-6980 -5155.073)">
      <path id="path0" d="M13.951.1c-.917.035-2.363.113-2.679.146L10.409.33A37.554,37.554,0,0,0,6.514.917c-.792.169-.934.2-1.215.275l-.556.145A26.956,26.956,0,0,0,1.288,2.518,2.015,2.015,0,0,0,0,4.735c0,1.382.216,4.891.351,5.7.015.089.042.293.06.454A40.743,40.743,0,0,0,1.3,15.629c.058.225.119.462.134.525.081.331.381,1.318.61,2.007s.305.9.535,1.494c.118.3.487,1.191.576,1.387.049.108.09.2.09.207,0,.024.338.727.606,1.261.4.795,1.005,1.873,1.4,2.489.346.542.542.842.644.987.065.092.184.263.264.38a35.545,35.545,0,0,0,8.3,8.254c1.062.759,1.046.763,3.089-.806A33.086,33.086,0,0,0,27.845,20.885c.029-.072.1-.244.16-.381.278-.652.635-1.6.892-2.372.221-.661.286-.875.574-1.9a42.479,42.479,0,0,0,1.315-7.905,26.428,26.428,0,0,0,.058-4.486c-.181-.715-.537-1.064-1.459-1.433-.842-.336-1.426-.543-2.243-.795-.546-.168-.721-.218-1.215-.343A33.825,33.825,0,0,0,21.9.493c-.314-.041-.6-.08-.644-.088S20.9.363,20.551.331,19.8.26,19.643.245C19.3.21,17.912.136,16.85.1c-.889-.033-1.984-.032-2.9,0m3.967.539c1.006.049,1.625.089,1.991.131.137.016.407.043.6.06.523.046,1.6.188,2.313.306A30.177,30.177,0,0,1,28.2,2.519l.381.148c1.257.487,1.552.732,1.764,1.462a33.084,33.084,0,0,1-.109,5.06c-.007.048-.034.312-.059.586s-.059.6-.075.717-.056.43-.088.688-.064.488-.071.512-.04.228-.073.454-.079.509-.1.629c-.259,1.363-.328,1.69-.531,2.518-.173.7-.275,1.074-.538,1.947a34.005,34.005,0,0,1-1.434,3.792,31.805,31.805,0,0,1-10.33,12.481c-1.276.952-1.363.975-2.032.528a37.4,37.4,0,0,1-5.386-4.622A30.486,30.486,0,0,1,3.231,19.6l-.2-.514c-.252-.647-.639-1.834-.864-2.65-.051-.185-.111-.4-.132-.468-.062-.208-.321-1.28-.409-1.7A43.355,43.355,0,0,1,.732,7.153C.569,3.57.639,3.394,2.518,2.666L2.9,2.518A30.675,30.675,0,0,1,9.267.99C9.573.95,9.856.91,9.9.9c.065-.013.766-.083,1.6-.16.31-.029,1.1-.077,1.874-.115.842-.041,3.594-.034,4.553.012M14.229,2.1c-.6.129-.917.8-.918,1.922,0,1.231.352,1.83,1.079,1.829.907,0,1.365-1.191,1.051-2.731-.153-.752-.623-1.147-1.212-1.02m1.914.033c-.006.016-.008.847,0,1.845l.008,1.815h.5l.008-.8.008-.8h.2c.25,0,.22-.042.456.644l.269.783.073.212h.275a.764.764,0,0,0,.275-.026,1.678,1.678,0,0,0-.07-.212c-.038-.1-.144-.41-.235-.684s-.177-.519-.192-.545c-.088-.158-.069-.242.072-.316a.848.848,0,0,0,.41-.865c0-.7-.341-1.037-1.083-1.06-.8-.025-.959-.024-.97,0m3.341.1c-.64.168-.979,1.237-.776,2.443.163.966.632,1.378,1.393,1.225a1.722,1.722,0,0,1,.248-.034c.059,0,.115-.039.214-.149.2-.222.23-.347.245-1.009l.012-.558-.459-.042c-.537-.05-.483-.073-.483.208,0,.256,0,.261.271.262h.139v.2c0,.516-.108.692-.421.692-.25,0-.369-.089-.5-.377a3.092,3.092,0,0,1,.011-2.11.445.445,0,0,1,.843.113c.027.082.052.153.056.158a4.76,4.76,0,0,0,.5-.068c.051-.033-.139-.467-.289-.661a1.155,1.155,0,0,0-1.006-.295M11.448,2.3c-.121.015-.312.037-.425.049l-.2.021v1.8a7.667,7.667,0,0,0,.044,1.79c.024-.006.314-.03.644-.053.719-.052.773-.064.945-.214a1.123,1.123,0,0,0,.02-1.655l-.115-.073.119-.108a.8.8,0,0,0,.275-.7c0-.691-.423-.972-1.3-.861m-1.537.174c-.064.013-.178.032-.253.042-.117.016-.139.029-.155.1-.01.044-.064.224-.118.4s-.141.46-.191.629l-.13.439c-.021.072-.082.287-.135.476-.117.419-.11.419-.23.015-.126-.423-.574-1.774-.595-1.8a1.183,1.183,0,0,0-.283.033l-.266.049V6.421h.063a.854.854,0,0,0,.168-.028c.058-.015.142-.035.186-.044l.081-.017V5.264A7.693,7.693,0,0,1,8.081,4.2c.016,0,.029.019.029.041a3.67,3.67,0,0,0,.119.388c.065.191.138.413.161.493.044.151.175.531.321.93.091.249.1.249.177,0,.021-.074.066-.214.1-.311s.092-.281.13-.41c.18-.595.263-.866.328-1.078a1.8,1.8,0,0,0,.071-.286c0-.031.013-.057.029-.057A8.13,8.13,0,0,1,9.574,5V6.1l.11-.016.249-.034.139-.018v-1.8c0-.989-.01-1.8-.022-1.8l-.139.027M21.52,4.24v1.8h.069c.038,0,.15.008.248.019l.179.019.008-.8c.008-.781.009-.8.066-.8s.752.093.886.115l.1.016v.8a5.231,5.231,0,0,0,.029.82,1.615,1.615,0,0,0,.249.056l.22.038V6.073c0-1.257,0-3.325-.013-3.334a1.954,1.954,0,0,0-.248-.049l-.237-.038V4.116l-.139-.022c-.077-.012-.31-.044-.52-.07l-.381-.049-.008-.734-.008-.734-.148-.034a1.388,1.388,0,0,0-.248-.034h-.1v1.8M14.673,2.691a2.566,2.566,0,0,1-.025,2.6.416.416,0,0,1-.609-.175,3.174,3.174,0,0,1,0-2.3.406.406,0,0,1,.63-.12m2.474-.067c.367.02.537.193.537.547,0,.43-.251.6-.818.54l-.206-.02v-1.1l.139.01.349.021m-5.114.188a.547.547,0,0,1,.032.835.846.846,0,0,1-.522.152l-.212.019V2.793l.168-.011c.375-.023.434-.02.534.03M24.367,4.669l.008,1.8.19.038c.1.021.217.041.249.044.058.006.059-.013.062-1.773l0-1.779-.062-.014-.208-.045c-.08-.017-.17-.038-.2-.046-.049-.015-.051.078-.044,1.78M5.846,3.23c-.248.066-.215.02-.315.444-.047.2-.14.592-.207.873s-.153.644-.19.805-.1.418-.143.571-.108.423-.149.6-.088.379-.1.449a.407.407,0,0,0-.019.138,2.243,2.243,0,0,0,.511-.136c.036-.03.036-.028.126-.523.106-.579.1-.574.671-.592L6.3,5.85l.084.337c.046.185.084.359.084.386a.082.082,0,0,0,.022.063,2.466,2.466,0,0,0,.54-.094,3.324,3.324,0,0,0-.177-.751c-.034-.1-.1-.334-.153-.527l-.163-.628c-.04-.153-.1-.37-.126-.483L6.271,3.61c-.133-.506-.091-.469-.424-.381M25.655,4.962l.008,1.792.161.041c.089.022.2.048.243.057l.082.016,0-1.192c0-.655,0-1.2.01-1.206a2.3,2.3,0,0,1,.165.376c.193.5.334.832.459,1.1a2.13,2.13,0,0,1,.1.227.912.912,0,0,0,.058.143c.032.068.077.177.1.241.214.589.246.637.494.73l.2.074-.008-1.8-.007-1.8-.22-.07a1.953,1.953,0,0,0-.261-.07c-.035,0-.038.162-.022,1.1a4.225,4.225,0,0,1-.017,1.082,6.1,6.1,0,0,1-.325-.738c-.159-.4-.383-.954-.5-1.236L26.157,3.3l-.174-.047-.254-.066-.081-.02.008,1.792M2.964,4.115,2.723,4.2V6.015c0,1,.007,1.811.015,1.811s.13-.044.271-.1.453-.168.695-.253.508-.181.593-.214L4.45,7.2V6.968c0-.226,0-.232-.066-.217a4.351,4.351,0,0,0-.534.167,1.06,1.06,0,0,1-.194.07,1.706,1.706,0,0,0-.249.091c-.178.093-.162.311-.158-2.144,0-.5-.009-.914-.021-.912s-.131.043-.264.092M28.488,5.837V7.624l.11.044c.06.024.149.062.2.083s.117.048.154.059l.066.02V4.2l-.081-.02a1.476,1.476,0,0,1-.2-.073.609.609,0,0,0-.183-.054h-.066V5.837M5.956,4.4c.052.249.183.818.211.915.01.035,0,.052-.038.052a2.136,2.136,0,0,0-.287.07A1.614,1.614,0,0,1,5.6,5.5c-.008-.007.026-.19.2-1.1.03-.153.054-.284.055-.291.006-.065.06.089.1.291M1.2,4.245a36.467,36.467,0,0,0,.179,5.089c.016.129.05.432.075.673.1.984.3,2.279.514,3.309.11.534.39,1.72.463,1.962.015.048.075.266.134.483.26.959,1.232,3.846,1.348,4,.03.041.046.044.074.016s-.034-.271-.341-1.194c-.2-.59-.626-2.17-.819-3.012a38.289,38.289,0,0,1-.7-4.132c-.11-.978-.137-1.253-.191-1.991-.1-1.292-.113-1.585-.161-2.781C1.7,4.776,1.688,4.726,1.447,4.4c-.131-.179-.2-.218-.251-.152m10.915.113c.148.113.194.242.181.51-.02.433-.178.574-.683.607l-.28.018.008-.6.008-.6.161-.019a.848.848,0,0,1,.6.079m3.265,2.193C14.443,6.73,13.6,7.639,14,8.047c.443.462,1.326.594,4.377.656,1.591.032,1.674.052,2.149.511.335.324.38.426.3.672a3.488,3.488,0,0,0-.1.442c-.048.3-.07.333-.174.286a6.489,6.489,0,0,0-1.043-.238,2.384,2.384,0,0,1-1.2-.413c-.676-.382-.859-.43-1.292-.338a1.086,1.086,0,0,0-.757.606c-.036.13-.07.159-.216.181a1.67,1.67,0,0,0-.676.353,4.849,4.849,0,0,1-.919.62,2.911,2.911,0,0,0-.456.3,3.648,3.648,0,0,1-.51.384,2.271,2.271,0,0,0-.661,1.3c-.039.178-.125.593-.191.923a2.192,2.192,0,0,1-.413,1.119A3.867,3.867,0,0,0,11.2,17.957a6.811,6.811,0,0,1-.521,1.815,2.832,2.832,0,0,0,.025,1.321c.051.3.025.392-.264.943-.159.3-.182.4-.095.4.059,0,.156-.119.18-.22.064-.272.271-.238.337.055.056.246-.214.662-.43.662-.137,0-.213-.061-.217-.173l0-.105-.027.114a.572.572,0,0,1-.109.207,1.124,1.124,0,0,0-.151.267,6.835,6.835,0,0,1-.664,1.1l-.156.2v.3c0,.335.059.377.153.108,0-.012.074.01.154.05a1.954,1.954,0,0,0,.278.11c.154.044.2.2.1.377l-.048.094L9.4,25.561c-.394-.019-.483.011-.629.215a.266.266,0,0,1-.272.14c-.09-.017-.076-.07.067-.259.228-.3.233-.316.042-.132-.428.413-.4.7.084.951a.946.946,0,0,0,.655.089c.427-.053.487-.089.487-.291,0-.185.032-.237.149-.237.148,0,.154-.035.149-.77-.008-1.127.192-1.555.932-2a.993.993,0,0,0,.483-.476,2.267,2.267,0,0,1,.133-.234.91.91,0,0,0,.1-.463,1.625,1.625,0,0,1,.155-.676c.044-.075.216-.4.383-.721.419-.808.564-.969.564-.627a1.182,1.182,0,0,0,.059.233.438.438,0,0,1,.012.357.8.8,0,0,0,.126.728.253.253,0,0,1,.08.114.206.206,0,0,0,.053.092c.019.012.009.089-.031.22-.1.33-.107.4-.022.239.194-.365.825-.411.677-.049a1.267,1.267,0,0,0-.061.244c-.018.129-.04.163-.179.288a.615.615,0,0,0-.158.181c0,.129-.267.182-.366.073a.85.85,0,0,1,0-.527c.012-.054.009-.061-.012-.029a1.763,1.763,0,0,0-.073.329,1.674,1.674,0,0,1-.575.967,3.091,3.091,0,0,0-.7.647.3.3,0,0,1-.117.141.466.466,0,0,0-.119.68,1.006,1.006,0,0,0,1.209.185c.278-.137.3-.167.27-.46-.016-.178-.011-.243.023-.3a.589.589,0,0,0,.062-.172A.948.948,0,0,1,13.155,24a3.329,3.329,0,0,0,.388-.713,1.18,1.18,0,0,1,.434-.712,6.222,6.222,0,0,0,.458-.511c.19-.253.235-.263.451-.1s.207.155.289.124.2.028.2.095a4.821,4.821,0,0,1-.305.488c-.321.477-.339.514-.2.408s.241,0,.128.127a1.2,1.2,0,0,0-.126.207c-.1.21-.35.219-.35.013,0-.1-.173.054-.252.223-.152.327.042.55.52.6a1.332,1.332,0,0,1,.311.059c.135.072.313-.224.341-.567a.745.745,0,0,1,.252-.576.536.536,0,0,0,.188-.542c-.02-.209-.019-.214.069-.3.158-.158.537-.119.572.058a.486.486,0,0,0,.092.18.306.306,0,0,1,.073.138,1.587,1.587,0,0,0,.073.266,1.478,1.478,0,0,1,.073.278.95.95,0,0,0,.134.273c.159.248.229.266.553.136l.185-.074.083.077c.1.089.172.088.719-.01.37-.066.466-.122.61-.351a1.213,1.213,0,0,1,.254-.275c.243-.181.309-.5.133-.653-.077-.066-.078-.071-.029-.125a1.32,1.32,0,0,0,.2-.5,1.892,1.892,0,0,1,.751-.9.634.634,0,0,0,.17-.1.2.2,0,0,1,.127-.033c.111,0,.353-.079.262-.083-.164-.007.013-.119.188-.119.208,0,.286.069.377.337.044.128.1.293.129.365a1.4,1.4,0,0,1-.189,1.133c-.084.106-.074.274.029.536s.109.371.014.5c-.265.361-.184.713.186.816.827.229,1.131-.019.886-.723a.708.708,0,0,1-.006-.587.7.7,0,0,0-.107-.549,1.626,1.626,0,0,1,.118-1.472l.09-.126-.035-.244a2.8,2.8,0,0,0-.094-.414c-.065-.19-.067-.186.128-.419a1.863,1.863,0,0,0,.132-.172c.022-.039.054-.035.256.032a1.4,1.4,0,0,0,1.664-.574c.119-.285.1-.3-.584-.316-.7-.021-.862-.1-1.085-.529a.606.606,0,0,0-.167-.166c-.076-.052-.119-.1-.11-.127A1.318,1.318,0,0,0,22.654,17a2.412,2.412,0,0,1-.167-1.536l.093-.165a3.576,3.576,0,0,0,0-1.779,2.14,2.14,0,0,0-.672-1.277,1.924,1.924,0,0,1-.49-1.871,1.723,1.723,0,0,0-.957-1.917c-.4-.21-.548-.224-2.06-.186-2.426.06-4.206-.206-4.054-.607.165-.436,1.072-.556,1.474-.2a.621.621,0,0,0,.414.184,2.747,2.747,0,0,1,.493.132,1.27,1.27,0,0,0,1.2-.012,2.237,2.237,0,0,1,.374-.163,1.9,1.9,0,0,0,.456-.18,1.52,1.52,0,0,0-.213-.04c-.282-.041-.423-.085-.443-.138-.041-.107.182-.127.57-.05a1.3,1.3,0,0,0,.483.02l.241-.028-.115-.052A.809.809,0,0,0,19,7.089a.566.566,0,0,1-.193-.023.415.415,0,0,0-.121-.042.6.6,0,0,1-.2-.116.442.442,0,0,0-.444-.148,1.32,1.32,0,0,1-.548-.071,6.3,6.3,0,0,0-2.118-.137m2,3.326a2.139,2.139,0,0,1,.317.215c.269.209.316.237.449.262a2.368,2.368,0,0,1,.366.149,2.138,2.138,0,0,0,.608.194c.758.142,1.52.464,1.1.467-.223,0-.322.1-.231.23.629.906.57,2.122-.083,1.7-.232-.149-.368-.376-.542-.908-.228-.7-.392-.887-.855-.994l-.449-.1c-.2-.047-.193-.065-.083.2a.641.641,0,0,0,.291.374c.394.294.534.559.715,1.356a9.737,9.737,0,0,0,.321,1.1,6.651,6.651,0,0,1,.338,1.147.426.426,0,0,0,.12.18c.113.115.119.129.1.253-.023.167-.04.182-.169.146-.2-.054-.3-.249-.343-.672-.059-.525-.218-.6-.726-.335a2.925,2.925,0,0,1-.5.2c-.307.08-.331.112-.237.314a.623.623,0,0,0,.125.189c.035.024.043.045.023.058-.131.081.107.249.477.338.192.046.2.053.239.159a.686.686,0,0,0,.521.413.7.7,0,0,1,.218.094,1.3,1.3,0,0,0,.715.219c.383.035.409.027.482-.146.056-.135.06-.134.672.268a5.331,5.331,0,0,1,1.293,1.038c.649.687.827.775,1.578.778.522,0,.531,0,.467.124a1.221,1.221,0,0,1-1.761.2c-.112-.087-.3-.223-.416-.3a1.385,1.385,0,0,1-.539-.656,1.115,1.115,0,0,0-1.03-.767,1.44,1.44,0,0,0-.785.058.449.449,0,0,1-.409-.014c-.065-.053-.073-.053-.122-.007a2.693,2.693,0,0,1-.38.2c-.858.387-.558.811.716,1.009.4.063.418.07.317.152-.654.539-1.762.153-2.353-.82-.386-.635-.108-1,.825-1.093.391-.038.445-.057.445-.163,0-.074,0-.075-.147-.062l-.147.014-.266-.289a1.9,1.9,0,0,0-.3-.289c-.074,0-.276.181-.4.357-.326.464-.439.508-.843.331-.233-.1-.385-.13-.385-.071a5.143,5.143,0,0,0,.217.765,3.9,3.9,0,0,1,.147.54c.052.3.08.332.294.332.477,0,.367.571-.2,1.05-.383.322-.465.516-.517,1.213a1.439,1.439,0,0,0,.017.6c.064.222.214.513.255.5.1-.032.146-.166.169-.45.034-.416.1-.538.3-.538.076,0,.081.008.081.127a4.066,4.066,0,0,1-.134.974.585.585,0,0,0,.022.587,2.9,2.9,0,0,1,.155.348l.062.176.139.009c.181.012.241.106.146.233-.134.18-.507,0-.507-.241a.045.045,0,0,0-.045-.045c-.061,0-.03.241.063.494.117.315.067.4-.164.29a.445.445,0,0,1-.249-.43.9.9,0,0,0-.162-.527,1.3,1.3,0,0,1-.154-.339,17.272,17.272,0,0,0-.691-1.708c-.3-.611-.232-.944.32-1.486.434-.426.423-.4.423-1.154,0-.95-.079-1.1-.586-1.1-.343,0-.4.036-.516.321a1.151,1.151,0,0,1-2.023-.067c-.027-.051-.062-.093-.077-.093-.109,0-.327.34-.328.511,0,.536-.543.652-.778.167l-.09-.186-.119.135a3.536,3.536,0,0,0-.612,1.435c-.339,1.357-.308,1.263-.4,1.215-.166-.087-.141-.482.084-1.34l.162-.619a2.712,2.712,0,0,0,.067-.615,3.154,3.154,0,0,1,.933-2.308c.242-.273.245-.283.327-.9.184-1.389.441-1.975,1.018-2.322.133-.08.419-.27.636-.422s.527-.349.688-.438.418-.25.571-.359a4.668,4.668,0,0,1,.454-.286,1.064,1.064,0,0,0,.5-.436.8.8,0,0,1,.475-.394c.173-.047.189-.047.286-.011m.145.45a.327.327,0,0,0,.106.5c.193.128.23.093.23-.224,0-.27-.187-.424-.336-.276m-.279,2.9c0,.009.039.029.087.046.2.07.124.229-.114.232-.349,0-.5.087-.556.309-.045.178-.007.246.138.246a1.453,1.453,0,0,1,1.024.373.769.769,0,0,0,.932.162c.164-.164-.275-1.014-.674-1.306a2.583,2.583,0,0,0-.836-.062m-3.221,1.9a.817.817,0,0,1-.28.621c-.119.131-.146.179-.128.225a1.024,1.024,0,0,1,.025.241.394.394,0,0,0,.645.355l.086-.064.15.078c.332.172.411.022.109-.208a2.059,2.059,0,0,1-.536-1.244c-.029-.236-.072-.239-.072,0m8.222,3.856c.565.135.665.724.122.724-.213,0-.308-.1-.3-.3.006-.261-.137-.188-.182.094a.549.549,0,0,1-.342.355c-.1.037-.1.03-.006-.244a1.4,1.4,0,0,0,.073-.377c0-.318.131-.368.639-.247m-3.438.867c.072.067.074.149,0,.149-.162,0-.224.177-.128.369.106.212-.043.3-.2.122-.188-.222-.271-.559-.166-.674a.482.482,0,0,1,.488.034m-6.022,3.824c.083.083.1.118.086.183-.029.142-.082.429-.1.532a.321.321,0,0,1-.324.28c-.651-.107-.811-.347-.472-.705.361-.382.621-.475.806-.29m9.143-.011a1.708,1.708,0,0,0,.4.081c.293.023.336.1.141.264a.459.459,0,0,1-.77-.215c-.062-.188,0-.221.234-.129m-7.287.037a1.99,1.99,0,0,0,.289.121c.269.085.3.163.079.221-.358.1-.736-.122-.592-.342.057-.087.066-.087.224,0m-2.668,1.086a3.079,3.079,0,0,0,.511.058.923.923,0,0,1,.331.041c.074.222-.674.355-1.035.184-.5-.235-.368-.422.193-.283" transform="translate(0)" fill-rule="evenodd"/>
      <path id="path2" d="M13.83.116a.414.414,0,0,0,.132,0C14,.109,13.968.1,13.9.1s-.1.006-.066.013m3.338,0a.414.414,0,0,0,.132,0C17.335.109,17.306.1,17.233.1s-.1.006-.066.013m-4.084.03a.523.523,0,0,0,.146,0c.036-.007,0-.012-.081-.012s-.11.006-.065.013m4.845,0a.419.419,0,0,0,.132,0c.036-.007.007-.013-.066-.013s-.1.006-.066.013m-5.416.03a.779.779,0,0,0,.176,0c.044-.007,0-.012-.1-.012s-.133.006-.08.012m5.973,0a.779.779,0,0,0,.176,0c.044-.007,0-.012-.1-.012s-.133.006-.08.012M12.058.2a.652.652,0,0,0,.161,0c.044-.007.008-.012-.08-.012S12.014.2,12.058.2m6.88,0A.653.653,0,0,0,19.1.2c.044-.007.008-.012-.081-.012S18.894.2,18.939.2m.439.028a.239.239,0,0,0,.1,0c.028-.007.005-.013-.051-.013s-.079.006-.051.013M10.624.32a.241.241,0,0,0,.1,0c.028-.007.005-.013-.051-.013S10.6.313,10.624.32m9.808,0a.241.241,0,0,0,.1,0c.028-.007.005-.013-.051-.013S20.4.313,20.432.32M10.36.349a.239.239,0,0,0,.1,0c.028-.007.005-.013-.051-.013s-.079.006-.051.013m4.846.295c.246,0,.647,0,.893,0s.045-.009-.447-.009-.692,0-.446.009M13.7.672a.646.646,0,0,0,.161,0C13.9.666,13.867.66,13.778.66s-.125.005-.081.012m3.748,0a.645.645,0,0,0,.161,0c.044-.007.008-.012-.08-.012s-.125.005-.081.012M12.952.7a.32.32,0,0,0,.117,0c.028-.007,0-.013-.066-.013s-.087.006-.051.013m5.314,0a.241.241,0,0,0,.1,0c.028-.007.005-.013-.051-.013s-.079.006-.051.013M12.439.73a.241.241,0,0,0,.1,0c.028-.007.005-.013-.051-.013s-.079.006-.051.013m6.324,0a.241.241,0,0,0,.1,0c.028-.007.005-.013-.051-.013s-.079.006-.051.013M12.088.76a.523.523,0,0,0,.146,0c.036-.007,0-.012-.081-.012s-.11.006-.065.013m7,0a.523.523,0,0,0,.146,0c.036-.007,0-.012-.081-.012s-.11.006-.066.013M11.707.789a.238.238,0,0,0,.1,0c.028-.007.005-.013-.051-.013s-.079.006-.051.013m7.788,0a.239.239,0,0,0,.1,0c.028-.007.005-.013-.051-.013s-.079.006-.051.013M10.448.906a.239.239,0,0,0,.1,0C10.579.9,10.556.892,10.5.892S10.42.9,10.448.906m10.306,0a.239.239,0,0,0,.1,0c.028-.007.005-.013-.051-.013s-.079.006-.051.013M14.5,2.077a.321.321,0,0,0,.117,0c.028-.007,0-.013-.066-.013s-.087.006-.051.013m2.415.059a3.261,3.261,0,0,0,.337,0c.093-.006.017-.011-.168-.011s-.261,0-.168.011m2.26.337-.086.1.1-.086a.733.733,0,0,0,.1-.1c0-.023-.024,0-.1.086m-2.23.19a1.883,1.883,0,0,0,.264,0c.068-.006.005-.011-.14-.011s-.2.005-.124.011m6.212.016c-.008.02-.011.353-.006.739l.008.7L23.17,3.4a2.409,2.409,0,0,1,.043-.737c.029-.012.029-.015,0-.017a.056.056,0,0,0-.052.035m-6.382.512v.52l.176,0,.176,0L16.963,3.7,16.8,3.693l-.009-.511-.009-.511v.52m5.354-.271c0,.1.006.133.012.08a.779.779,0,0,0,0-.176c-.007-.044-.012,0-.012.1m-10.5-.082a.321.321,0,0,0,.117,0c.028-.007,0-.013-.066-.013s-.087.006-.051.013m-3.355.127c.017.049.037.084.043.077a.289.289,0,0,0-.06-.167c-.008,0,0,.04.017.089M24.45,4.706a7.683,7.683,0,1,0,.008.917c0-.494,0-1.311,0-1.815a8.507,8.507,0,1,0-.008.9M13.5,3.01A.17.17,0,0,0,13.5,3.1c.007.007.021-.023.032-.065a.171.171,0,0,0,.007-.091c-.007-.007-.021.023-.032.065m-.622.174c0,.129.005.178.011.109a1.471,1.471,0,0,0,0-.234c-.006-.06-.011,0-.011.125M24.9,2.99c.066.018.075.039.09.209l.017.189.005-.177c.005-.189-.025-.249-.125-.244-.05,0-.048.006.013.023m-6.072.136a.281.281,0,0,0-.016.1c0,.027.014.01.028-.038.028-.092.018-.138-.013-.059m-6.513.106a1.034,1.034,0,0,1-.022.19c-.016.05-.015.05.016,0a.407.407,0,0,0,.022-.19L12.325,3.1l-.005.137m8.573-.056c0,.026-.03.052-.066.059l-.066.013.067,0c.064,0,.121-.067.083-.1-.01-.01-.018,0-.018.029M1.276,3.418a.665.665,0,0,0-.115.132,1.013,1.013,0,0,0,.144-.132.667.667,0,0,0,.115-.132,1.015,1.015,0,0,0-.144.132M23.716,3.7c0,.234,0,.329.01.212s.006-.308,0-.425-.01-.021-.01.212M30,3.411a1.646,1.646,0,0,0,.139.139c.022,0,0-.026-.131-.148l-.139-.131L30,3.411M25,4.37c0,.443,0,.624.009.4s0-.584,0-.805S25,3.927,25,4.37m-7.794-.652a.645.645,0,0,0,.161,0c.044-.007.008-.012-.081-.012s-.125.005-.08.012m4.911.138a.2.2,0,0,0,.023.115c.012.008.018-.038.012-.1-.014-.142-.034-.15-.034-.014m5.723.939c0,.58,0,.821.009.536s0-.759,0-1.054-.009-.062-.009.518m-18.2-.812c-.005.012,0,.509.006,1.105L9.666,6.17l.006-1.105c.006-1,0-1.156-.028-1.083M22.5,4.039a.319.319,0,0,0,.117,0c.028-.007,0-.013-.066-.013s-.087.006-.051.013m6.081.016c-.008.02-.011.432-.006.915l.008.878.007-.9.007-.9.066.019c.052.015.056.012.022-.012-.058-.041-.087-.039-.1.005m-15.2.11c0,.056.006.079.013.051a.241.241,0,0,0,0-.1c-.007-.028-.013-.005-.013.051m3.4.1c-.008.02-.01.373-.006.783l.008.746.007-.766c.006-.7.011-.768.058-.78s.048-.014,0-.017a.068.068,0,0,0-.066.034m-8.616.395c.005.441.018.4.031-.088a1.147,1.147,0,0,0-.014-.315,1.874,1.874,0,0,0-.017.4m20.972.315c0,.4,0,.571.009.375s.005-.526,0-.732-.009-.046-.009.357M5.917,4.4a.347.347,0,0,0-.007.135c.007.007.022-.041.033-.108a.368.368,0,0,0,.007-.135c-.007-.007-.022.042-.033.108M1.23,4.867c0,.266,0,.374.01.242s.005-.35,0-.483-.01-.024-.01.242m25.021-.132a.834.834,0,0,0,.013.216,1.448,1.448,0,0,0,.006-.427c-.011-.011-.019.084-.019.21m-3.594-.141a.241.241,0,0,0,.1,0c.028-.007.005-.013-.051-.013s-.079.006-.051.013m1.06.858c0,.491,0,.692.009.447s0-.647,0-.893-.009-.045-.009.446m-3.666-.829a.239.239,0,0,0,.1,0c.028-.007.005-.013-.051-.013s-.079.006-.051.013m.324.17c0,.1.006.133.012.08a.783.783,0,0,0,0-.176c-.007-.044-.012,0-.012.1m2.785.439c0,.322,0,.458.01.3s.005-.42,0-.586-.01-.038-.01.284M8.874,4.794c.021.1.036.12.059.1s-.006-.053-.032-.1l-.047-.085.02.088m9.941.12a.212.212,0,0,0,.03.1c.022.032.024.02.01-.044-.024-.108-.041-.131-.04-.056M2.808,5.175c0,.113.005.155.012.094a1.091,1.091,0,0,0,0-.2c-.006-.052-.012,0-.012.11m2.962-.044a.218.218,0,0,0-.007.106c.007.007.022-.029.032-.08A.24.24,0,0,0,5.8,5.051c-.007-.007-.021.029-.032.08m13.776.126a.733.733,0,0,0,.1.1l.1.086-.086-.1c-.08-.089-.1-.109-.1-.086m-17.7.181c0,.1.006.133.012.08a.779.779,0,0,0,0-.176c-.007-.044-.012,0-.012.1m4.383-.119a.066.066,0,0,1-.051.055c-.039.01-.035.014.015.017s.066-.013.066-.055-.007-.059-.015-.059-.015.019-.015.042m15.909.236c0,.145,0,.208.011.14a1.884,1.884,0,0,0,0-.264c-.006-.077-.011-.021-.011.124m2.871.4c0,.362,0,.511.009.329s.005-.478,0-.659S25,5.588,25,5.951m-16.839-.4c0,.081.006.11.013.065a.52.52,0,0,0,0-.146c-.007-.036-.012,0-.012.081m3.278-.1a.094.094,0,0,0,.083.049c.056,0,.059,0,.012-.011a.177.177,0,0,1-.083-.049c-.016-.022-.02-.018-.012.011m3.724.183-.086.1.1-.086a.733.733,0,0,0,.1-.1c0-.023-.024,0-.1.086m-13.91.271c0,.145,0,.208.011.14a1.907,1.907,0,0,0,0-.264c-.006-.077-.011-.021-.011.124M16.5,5.834l-.278.018.269.006a.762.762,0,0,0,.287-.024c.01-.016.014-.027.009-.024s-.134.014-.287.024m1.471.049a.239.239,0,0,0,.1,0c.028-.007.005-.013-.051-.013s-.079.006-.051.013m2.46.007a.482.482,0,0,0-.142.038c-.028.028.233-.011.264-.04.015-.014.022-.024.015-.022l-.137.024m10.045.221c0,.145,0,.208.011.14a1.909,1.909,0,0,0,0-.264c-.006-.077-.011-.021-.011.124M5.771,5.923c-.041.019-.023.021.059.009A.605.605,0,0,0,5.958,5.9c.025-.022-.132-.006-.188.02m.271-.01a.319.319,0,0,0,.117,0c.028-.007,0-.013-.066-.013s-.087.006-.051.013m5.943,0a.932.932,0,0,0,.19,0c.052-.006.01-.012-.1-.012s-.147.005-.1.012m2.328,0a.241.241,0,0,0,.1,0c.028-.007.005-.013-.051-.013s-.079.006-.051.013m.264,0a.241.241,0,0,0,.1,0c.028-.007.005-.013-.051-.013s-.079.006-.051.013m5.014.009a.323.323,0,0,0,.1.025c.028,0,.022-.009-.015-.025a.323.323,0,0,0-.1-.025c-.028,0-.022.009.015.025m3.567.161c0,.113.005.155.012.095a1.092,1.092,0,0,0,0-.2c-.006-.052-.012,0-.012.11m5.97.781a4.206,4.206,0,0,1-.044,1c-.029.012-.028.015,0,.017.063,0,.066-.042.058-1.037l-.008-.966-.007.986M.818,6.141c0,.129.005.178.011.109a1.46,1.46,0,0,0,0-.234c-.006-.06-.011,0-.011.125m10.874-.2a.419.419,0,0,0,.132,0c.036-.007.007-.013-.066-.013s-.1.006-.066.013M.114,6.156c0,.089.005.125.012.081a.646.646,0,0,0,0-.161c-.007-.044-.012-.008-.012.081m21.533-.067a.32.32,0,0,0,.117,0c.028-.007,0-.013-.066-.013s-.087.006-.051.013M1.87,6.331c0,.072.006.1.013.066a.418.418,0,0,0,0-.132c-.007-.036-.013-.007-.013.066m3.612.074a.331.331,0,0,0-.015.111c0,.04.012.026.027-.039.026-.109.019-.151-.012-.072m1.054.145c.024.108.041.131.04.056a.213.213,0,0,0-.03-.1c-.022-.032-.024-.02-.01.044m9.139-.023a.319.319,0,0,0,.117,0c.028-.007,0-.013-.066-.013s-.087.006-.051.013m.717,0a.645.645,0,0,0,.161,0c.044-.007.008-.012-.081-.012s-.125.005-.08.012M31,6.61c0,.064.006.087.013.051a.319.319,0,0,0,0-.117c-.007-.028-.013,0-.013.066M16.787,6.557a.321.321,0,0,0,.117,0c.028-.007,0-.013-.066-.013s-.087.006-.051.013M.143,6.946c0,.089.005.125.012.081a.645.645,0,0,0,0-.161c-.007-.044-.012-.008-.012.08m1.756.1c0,.081.006.11.013.065a.523.523,0,0,0,0-.146c-.007-.036-.012,0-.012.081m28.546.015c0,.072.006.1.013.066a.419.419,0,0,0,0-.132c-.007-.036-.013-.007-.013.066m-29.6.029c0,.073.006.1.013.066a.419.419,0,0,0,0-.132C.851,6.991.845,7.02.845,7.093m.439.176c0,.073.006.1.013.066a.418.418,0,0,0,0-.132c-.007-.036-.013-.007-.013.066m29.689,0c0,.073.006.1.013.066a.418.418,0,0,0,0-.132c-.007-.036-.013-.007-.013.066M18.353,7.2a.241.241,0,0,0,.1,0c.028-.007.005-.013-.051-.013s-.079.006-.051.013m1.061.038-.088.022.079,0a.128.128,0,0,0,.1-.026c.01-.016.014-.028.009-.026l-.1.026m-4.121.05a.414.414,0,0,0,.132,0c.036-.007.007-.013-.066-.013s-.1.006-.066.013m.534.17a.641.641,0,0,0,.114.1c.008,0-.03-.046-.085-.1a.641.641,0,0,0-.114-.1c-.008,0,.03.046.085.1M.173,7.532c0,.089.005.125.012.081a.646.646,0,0,0,0-.161c-.007-.044-.012-.008-.012.081m1.757.029c0,.1.005.147.012.1a.932.932,0,0,0,0-.19c-.006-.052-.012-.01-.012.1m16.836-.154c.091.009.109.021.093.061s-.011.041.016.015c.056-.055,0-.1-.113-.093l-.108,0,.112.012M.874,7.678c0,.073.006.1.013.066a.418.418,0,0,0,0-.132C.88,7.576.874,7.606.874,7.678m29.541.029c0,.056.006.079.013.051a.241.241,0,0,0,0-.1c-.007-.028-.013-.005-.013.051m.529.088c0,.089.005.125.012.081a.645.645,0,0,0,0-.161c-.007-.044-.012-.008-.012.08M16.26,7.7a.414.414,0,0,0,.132,0c.036-.007.007-.013-.066-.013s-.1.006-.066.013M.2,7.971c0,.072.006.1.013.066a.418.418,0,0,0,0-.132C.207,7.869.2,7.9.2,7.971m1.757.073c0,.081.006.11.013.065a.52.52,0,0,0,0-.146c-.007-.036-.012,0-.012.081M.9,8.1c0,.081.006.11.013.066a.523.523,0,0,0,0-.146C.909,7.986.9,8.022.9,8.1m30.011.088c0,.081.006.11.013.065a.523.523,0,0,0,0-.146c-.007-.036-.012,0-.012.081M1.342,8.176c0,.056.006.079.013.051a.241.241,0,0,0,0-.1c-.007-.028-.013-.005-.013.051m29.045.015c0,.064.006.087.013.051a.32.32,0,0,0,0-.117c-.007-.028-.013,0-.013.066m-10.862.065a1.27,1.27,0,0,0,.22,0c.06-.006.011-.012-.11-.012s-.17.005-.11.012m-1.815.03c.109.006.287.006.4,0s.02-.01-.2-.01-.306,0-.2.01M1.372,8.5c0,.073.006.1.013.066a.418.418,0,0,0,0-.132c-.007-.036-.013-.007-.013.066m-.44.015c0,.064.006.087.013.051a.319.319,0,0,0,0-.117c-.007-.028-.013,0-.013.066m29.426.029c0,.081.006.11.013.065a.526.526,0,0,0,0-.146c-.007-.036-.013,0-.012.081M1.986,8.557c0,.056.006.079.013.051a.241.241,0,0,0,0-.1c-.007-.028-.013-.005-.013.051m14.625.138a.418.418,0,0,0,.132,0c.036-.007.007-.013-.066-.013s-.1.006-.066.013m.542.03a.646.646,0,0,0,.161,0c.044-.007.008-.012-.081-.012s-.125.005-.081.012m.542.03a1.47,1.47,0,0,0,.234,0c.06-.006,0-.011-.125-.011s-.178.005-.109.011m1.361,0a.646.646,0,0,0,.161,0c.044-.007.008-.012-.081-.012s-.125.005-.081.012m11.272.155c0,.056.006.079.013.051a.241.241,0,0,0,0-.1c-.007-.028-.013-.005-.013.051m-9.639.425a.639.639,0,0,0,.114.1c.008,0-.03-.046-.085-.1a.637.637,0,0,0-.114-.1c-.008,0,.03.046.085.1M.317,9.464c0,.056.006.079.013.051a.241.241,0,0,0,0-.1c-.007-.028-.013-.005-.013.051m.029.264c0,.056.006.079.013.051a.239.239,0,0,0,0-.1c-.007-.028-.013-.005-.013.051m1.729.029c0,.073.006.1.013.066a.418.418,0,0,0,0-.132c-.007-.036-.013-.007-.013.066m-1.025.1c0,.064.006.087.013.051a.319.319,0,0,0,0-.117c-.007-.028-.013,0-.013.066m15.567.007-.1.11.11-.1c.1-.094.123-.119.1-.119a1,1,0,0,0-.11.11m14.15.007c0,.056.006.079.013.051a.241.241,0,0,0,0-.1c-.007-.028-.013-.005-.013.051M1.517,9.991c0,.056.006.079.013.051a.241.241,0,0,0,0-.1c-.007-.028-.013-.005-.013.051m.586.1c0,.064.006.087.013.051a.319.319,0,0,0,0-.117c-.007-.028-.013,0-.013.066m14.323-.007-.086.1.1-.086a.733.733,0,0,0,.1-.1c0-.023-.024,0-.1.086m.117.468-.086.1.1-.086a.722.722,0,0,0,.1-.1c0-.023-.024,0-.1.086m-1.112.234-.116.124.124-.116c.116-.108.138-.133.116-.133a1.316,1.316,0,0,0-.124.124m6.028.11c0,.137.005.193.011.124a1.693,1.693,0,0,0,0-.249c-.006-.068-.011-.012-.011.124m-2.909.981a.641.641,0,0,0,.114.1c.008,0-.03-.046-.085-.1a.641.641,0,0,0-.114-.1c-.008,0,.03.046.085.1m1.259,1.049a.733.733,0,0,0,.1.1l.1.086-.086-.1c-.08-.089-.1-.109-.1-.086m-2.47.306c-.008.012.038.018.1.012a.312.312,0,0,0,.115-.022c0-.022-.2-.012-.215.011m.947.168a.638.638,0,0,0,.114.1c.008,0-.03-.046-.085-.1a.641.641,0,0,0-.114-.1c-.008,0,.03.046.085.1m-1.076.123a.645.645,0,0,0,.161,0c.044-.007.008-.012-.081-.012s-.125.005-.08.012m5.624.931c0,.113.005.155.012.095a1.1,1.1,0,0,0,0-.2c-.006-.052-.012,0-.012.11m-3.926.015c0,.056.006.079.013.051a.241.241,0,0,0,0-.1c-.007-.028-.013-.005-.013.051m.191.255a.319.319,0,0,0,.117,0c.028-.007,0-.013-.066-.013s-.087.006-.051.013m-4.992.477c0,.072.006.1.013.066a.419.419,0,0,0,0-.132c-.007-.036-.013-.007-.013.066m.116-.029c0,.056.006.079.013.051a.241.241,0,0,0,0-.1c-.007-.028-.013-.005-.013.051m-1.575.183-.116.124.124-.116c.116-.108.138-.133.116-.133a1.3,1.3,0,0,0-.124.124m7.277.456c0,.019-.03.036-.066.038-.054,0-.056.006-.012.017s.13-.036.1-.069c-.011-.011-.02,0-.02.014m2.613.107c0,.064.006.087.013.051a.319.319,0,0,0,0-.117c-.007-.028-.013,0-.013.066m-1.809.921a.61.61,0,0,1-.218.038l-.19.011.194.006c.142,0,.2-.006.23-.038.04-.048.028-.06-.016-.016m-1.85.051a.241.241,0,0,0,.1,0c.028-.007.005-.013-.051-.013s-.079.006-.051.013m-5.44.28-.086.1.1-.086c.089-.08.109-.1.086-.1a.733.733,0,0,0-.1.1m7.241.16a.419.419,0,0,0,.132,0c.036-.007.007-.013-.066-.013s-.1.006-.066.013m-9.062.184c0,.056.006.079.013.051a.241.241,0,0,0,0-.1c-.007-.028-.013-.005-.013.051m3.119.256a1.461,1.461,0,0,0,.234,0c.06-.006,0-.011-.125-.011s-.178.005-.109.011m7.941.2a.64.64,0,0,0,.114.1c.008,0-.03-.046-.085-.1a.639.639,0,0,0-.114-.1c-.008,0,.03.046.085.1m-11.06.044c0,.056.006.079.013.051a.241.241,0,0,0,0-.1c-.007-.028-.013-.005-.013.051m7.261.059c0,.056.006.079.013.051a.241.241,0,0,0,0-.1c-.007-.028-.013-.005-.013.051m-.563.243a.733.733,0,0,0,.1.1l.1.086-.086-.1c-.08-.089-.1-.109-.1-.086m4.011.234a.733.733,0,0,0,.1.1l.1.086-.086-.1c-.08-.089-.1-.109-.1-.086m2.276.1a.418.418,0,0,0,.132,0c.036-.007.007-.013-.066-.013s-.1.006-.066.013m-.4.177c.108.006.292.006.41,0s.029-.01-.2-.01-.322,0-.213.01m-2.253.145a.241.241,0,0,0,.1,0c.028-.007.005-.013-.051-.013s-.079.006-.051.013m-5.687.316a.668.668,0,0,0-.115.132,1.006,1.006,0,0,0,.144-.132.664.664,0,0,0,.115-.132,1.015,1.015,0,0,0-.144.132m6.536.161c0,.056.006.079.013.051a.241.241,0,0,0,0-.1c-.007-.028-.013-.005-.013.051m-5.7.066-.116.124.124-.116a1.312,1.312,0,0,0,.124-.124c0-.022-.026,0-.133.116m4.5.272c-.042.093-.042.1,0,.1.019,0,.026-.008.016-.019s0-.044.012-.076.025-.063.018-.069-.028.021-.046.062m.837-.054a.321.321,0,0,0,.117,0c.028-.007,0-.013-.066-.013s-.087.006-.051.013m-11.753.492c0,.129.005.178.011.109a1.47,1.47,0,0,0,0-.234c-.006-.06-.011,0-.011.125m.5-.1c0,.072.006.1.013.066a.418.418,0,0,0,0-.132c-.007-.036-.013-.007-.013.066m5.562.278c0,.064.006.087.013.051a.319.319,0,0,0,0-.117c-.007-.028-.013,0-.013.066m6.062.249c0,.089.005.125.012.081a.646.646,0,0,0,0-.161c-.007-.044-.012-.008-.012.081M13,20.9c0,.08.006.11.013.065a.52.52,0,0,0,0-.146c-.007-.036-.012,0-.012.081m4.566-.044c0,.056.006.079.013.051a.241.241,0,0,0,0-.1c-.007-.028-.013-.005-.013.051m2.642.3-.145.154.154-.145a2.046,2.046,0,0,0,.154-.154c0-.022-.027,0-.162.145m-9.4.183c0,.064.006.087.013.051a.319.319,0,0,0,0-.117c-.007-.028-.013,0-.013.066m11.684.4c0,.1.005.147.012.1a.932.932,0,0,0,0-.19c-.006-.052-.012-.01-.012.1m-9.1.212-.086.1.1-.086c.089-.08.109-.1.086-.1a.726.726,0,0,0-.1.1m2.878.335a.419.419,0,0,0,.132,0c.036-.007.007-.013-.066-.013s-.1.006-.066.013m-.266.175a.272.272,0,0,0,0,.206c.012.019.022-.024.022-.1s0-.13,0-.13a.134.134,0,0,0-.022.019m5.522.1c0,.073.006.1.013.066a.414.414,0,0,0,0-.132c-.007-.036-.013-.007-.013.066m-11.193-.028a.154.154,0,0,0-.023.089c.005.016.025-.011.043-.06.038-.1.027-.118-.021-.029m7.43.429a.419.419,0,0,0,.132,0c.036-.007.007-.013-.066-.013s-.1.006-.066.013m-3.008.287c-.055.056-.087.1-.072.1.036,0,.182-.115.149-.116-.014,0-.009-.02.011-.045.068-.082.012-.045-.088.059m7.912.015c0,.056.006.079.013.051a.241.241,0,0,0,0-.1c-.007-.028-.013-.005-.013.051M14.7,23.56a.207.207,0,0,0,.117.044c.048,0,.045-.007-.018-.026a.909.909,0,0,1-.117-.044c-.021-.011-.013,0,.018.026m-2.781.463-.116.124.124-.116c.116-.108.138-.133.116-.133a1.305,1.305,0,0,0-.124.124m10.256.13a.419.419,0,0,0,.132,0c.036-.007.007-.013-.066-.013s-.1.006-.066.013m-7.392.147a.523.523,0,0,0,.146,0c.036-.007,0-.012-.081-.012s-.11.006-.065.013m7.6.029a.778.778,0,0,0,.176,0c.044-.007,0-.012-.1-.012s-.133.006-.08.012m-12.135.608c0,.1.006.133.012.08a.778.778,0,0,0,0-.176c-.007-.044-.012,0-.012.1m-1.058.154c0,.121.049.174.1.1.01-.016,0-.022-.026-.012s-.046-.011-.055-.1l-.012-.112,0,.124m-.17.174c.011.011-.03.074-.09.139l-.11.119.123-.115c.107-.1.136-.164.075-.164-.01,0-.009.009,0,.02m-.318.28-.234.242.242-.234c.224-.217.255-.25.234-.25,0,0-.113.109-.242.242m1.578.037c0,.145,0,.208.011.14a1.884,1.884,0,0,0,0-.264c-.006-.077-.011-.021-.011.124m-.75.006a1.091,1.091,0,0,0,.2,0c.061-.006.018-.012-.095-.012s-.162.005-.11.012M9.16,26.643a.523.523,0,0,0,.146,0c.036-.007,0-.012-.081-.012s-.11.006-.065.013m-.447,1.8a.733.733,0,0,0,.1.1l.1.086-.086-.1c-.08-.089-.1-.109-.1-.086m13.54.35-.086.1.1-.086a.733.733,0,0,0,.1-.1c0-.023-.024,0-.1.086m-.307.337-.1.11.11-.1c.1-.094.123-.119.1-.119a1,1,0,0,0-.11.11m-12.56.044c.121.129.148.153.148.131a1.639,1.639,0,0,0-.139-.139l-.139-.131.131.139m13.321-.015-.1.11.11-.1c.1-.094.123-.119.1-.119a1,1,0,0,0-.11.11M8.42,29.178a.733.733,0,0,0,.1.1l.1.086-.086-.1c-.08-.089-.1-.109-.1-.086m14.067.232-.086.1.1-.086a.733.733,0,0,0,.1-.1c0-.023-.024,0-.1.086m-1.024.234-.2.212.212-.2c.2-.19.226-.22.2-.22,0,0-.1.1-.212.212M8.684,29.471a.733.733,0,0,0,.1.1l.1.086-.086-.1c-.08-.089-.1-.109-.1-.086m1.537.576c.306.306.562.556.57.556s-.235-.25-.541-.556-.562-.556-.57-.556.235.25.541.556m-1.07-.081a1.639,1.639,0,0,0,.139.139c.022,0,0-.026-.131-.148l-.139-.131.131.139m11.712.278-.366.373.373-.366c.347-.34.387-.381.366-.381,0,0-.172.168-.373.373m.381.461c-.314.314-.564.571-.556.571s.271-.257.585-.571.564-.571.556-.571-.271.257-.585.571M11.1,30.9a1.23,1.23,0,0,0,.159.146.844.844,0,0,0-.13-.146,1.23,1.23,0,0,0-.159-.146.844.844,0,0,0,.13.146m9.016.066-.086.1.1-.086a.733.733,0,0,0,.1-.1c0-.023-.024,0-.1.086m-8.738.178a.733.733,0,0,0,.1.1l.1.086-.086-.1c-.08-.089-.1-.109-.1-.086m8.416.115-.086.1.1-.086a.725.725,0,0,0,.1-.1c0-.023-.024,0-.1.086m-9.236.124a1.471,1.471,0,0,0,.174.161,1.041,1.041,0,0,0-.144-.161,1.471,1.471,0,0,0-.174-.161,1.046,1.046,0,0,0,.144.161m1.113.024a.733.733,0,0,0,.1.1l.1.086-.086-.1c-.08-.089-.1-.109-.1-.086m7.845.1-.1.11.11-.1c.1-.094.123-.119.1-.119a1,1,0,0,0-.11.11m.805.1-.116.124.124-.116c.116-.108.138-.133.116-.133a1.305,1.305,0,0,0-.124.124m-9.338.168a1.224,1.224,0,0,0,.159.146.847.847,0,0,0-.13-.146,1.235,1.235,0,0,0-.159-.146.838.838,0,0,0,.13.146m.249.214a.733.733,0,0,0,.1.1l.1.086-.086-.1c-.08-.089-.1-.109-.1-.086m8.431.218-.1.11.11-.1c.1-.094.123-.119.1-.119a1,1,0,0,0-.11.11M15.6,34.342a.241.241,0,0,0,.1,0c.028-.007.005-.013-.051-.013s-.079.006-.051.013" transform="translate(-0.105 -0.028)" fill="#a6a6a1" fill-rule="evenodd"/>
      <path id="path3" d="M46.788,6.927a.319.319,0,0,0,.117,0c.028-.007,0-.013-.066-.013s-.087.006-.051.013m1.962,0a.319.319,0,0,0,.117,0c.028-.007,0-.013-.066-.013s-.087.006-.051.013M54.3,8.941c0,.064.006.087.013.051a.319.319,0,0,0,0-.117c-.007-.028-.013,0-.013.066m-10.683.2a.317.317,0,0,0,0,.124c.011.071.013.068.017-.025s.017-.11.07-.12l.066-.013-.067,0a.085.085,0,0,0-.083.037M54.3,9.7c0,.193,0,.269.011.167s.006-.259,0-.351-.011-.009-.01.184M43.61,9.542c0,.056.006.079.013.051a.241.241,0,0,0,0-.1c-.007-.028-.013-.005-.013.051m0,.278c0,.064.006.087.013.051a.321.321,0,0,0,0-.117c-.007-.028-.013,0-.013.066m2.492.468c0,.161.005.223.011.138a2.4,2.4,0,0,0,0-.293c-.006-.076-.011-.006-.011.155M34.978,10.9c0,.209,0,.291.01.182s.006-.281,0-.381-.01-.011-.01.2M54.3,11.2c0,.225,0,.314.01.2s.006-.3,0-.41-.01-.012-.01.214m-10.691-.19c0,.056.006.079.013.051a.241.241,0,0,0,0-.1c-.007-.028-.013-.005-.013.051m19.065.278c0,.177,0,.246.011.153a2.945,2.945,0,0,0,0-.322c-.006-.084-.011-.008-.011.169m-19.064.029c0,.064.006.087.013.051a.321.321,0,0,0,0-.117c-.007-.028-.013,0-.013.066m14.819.337c0,.234,0,.329.01.212s.006-.308,0-.425-.01-.021-.01.212m-18.1-.132c0,.113.005.155.012.095a1.092,1.092,0,0,0,0-.2c-.006-.052-.012,0-.012.11m3.277.088c0,.064.006.087.013.051a.321.321,0,0,0,0-.117c-.007-.028-.013,0-.013.066m-8.635.249c0,.121.005.17.011.11a1.271,1.271,0,0,0,0-.22c-.006-.06-.011-.011-.011.11M52.1,11.787a.241.241,0,0,0,.1,0c.028-.007.005-.013-.051-.013s-.079.006-.051.013m-11.777.527a1.135,1.135,0,0,0,.008.334,1.539,1.539,0,0,0,.015-.357l-.009-.334-.014.357m13.974-.05c0,.073.006.1.013.066a.419.419,0,0,0,0-.132c-.007-.036-.013-.007-.013.066m5.714.644c0,.411,0,.579.009.373s.005-.541,0-.747-.009-.037-.009.373m.732.132c0,.483,0,.685.009.448s0-.632,0-.878-.009-.053-.009.43M50.506,14.569a.419.419,0,0,0,.132,0c.036-.007.007-.013-.066-.013s-.1.006-.066.013m1.23,10.745a.414.414,0,0,0,.132,0c.036-.007.007-.013-.066-.013s-.1.006-.066.013M44.4,31.462a.241.241,0,0,0,.1,0c.028-.007.005-.013-.051-.013s-.079.006-.051.013" transform="translate(-32.273 -6.312)" fill="#8c8c88" fill-rule="evenodd"/>
      <path id="path4" d="M14.3.145a1.909,1.909,0,0,0,.264,0c.068-.006,0-.011-.14-.011s-.2.005-.124.011m2.312,0a2.142,2.142,0,0,0,.278,0c.076-.006.014-.011-.139-.011s-.216,0-.139.011M13.478.174a1.286,1.286,0,0,0,.22,0c.06-.006.011-.012-.11-.012s-.17.005-.11.012m3.982,0a1.286,1.286,0,0,0,.22,0c.06-.006.011-.012-.11-.012s-.17.005-.11.012M12.922.2a.645.645,0,0,0,.161,0C13.127.2,13.091.191,13,.191S12.878.2,12.922.2M18.1.2a.646.646,0,0,0,.161,0c.044-.007.008-.012-.081-.012S18.06.2,18.1.2M12.41.232a.321.321,0,0,0,.117,0c.028-.007,0-.013-.066-.013s-.087.006-.051.013m6.266,0a.321.321,0,0,0,.117,0c.028-.007,0-.013-.066-.013s-.087.006-.051.013m-7.8.117a.241.241,0,0,0,.1,0C11,.341,10.98.335,10.924.335s-.079.006-.051.013m9.34,0a.241.241,0,0,0,.1,0c.028-.007.005-.013-.051-.013s-.079.006-.051.013M14.093.672a3.261,3.261,0,0,0,.337,0c.093-.006.017-.011-.168-.011s-.261,0-.168.011m2.811,0a3.261,3.261,0,0,0,.337,0c.093-.006.017-.011-.168-.011s-.261,0-.168.011M13.376.7a.414.414,0,0,0,.132,0c.036-.007.007-.013-.066-.013s-.1.006-.066.013m4.45,0a.414.414,0,0,0,.132,0c.036-.007.007-.013-.066-.013s-.1.006-.066.013M12.688.729a.241.241,0,0,0,.1,0c.028-.007.005-.013-.051-.013s-.079.006-.051.013m5.856,0a.241.241,0,0,0,.1,0c.028-.007.005-.013-.051-.013s-.079.006-.051.013M11.824.788a.321.321,0,0,0,.117,0c.028-.007,0-.013-.066-.013s-.087.006-.051.013m7.583,0a.321.321,0,0,0,.117,0c.028-.007,0-.013-.066-.013s-.087.006-.051.013M11.473.818a.414.414,0,0,0,.132,0C11.641.811,11.611.8,11.539.8s-.1.006-.066.013m8.286,0a.319.319,0,0,0,.117,0C19.9.81,19.874.8,19.81.8s-.087.006-.051.013M16.436,2.165a.652.652,0,0,0,.161,0c.044-.007.008-.012-.081-.012s-.125.005-.08.012m3.353.088a.32.32,0,0,0,.117,0c.028-.007,0-.013-.066-.013s-.087.006-.051.013m-8.71.147a.52.52,0,0,0,.146,0c.036-.007,0-.012-.081-.012s-.11.006-.065.013m10.546.1c-.008.02-.01.84-.006,1.823l.008,1.786.007-1.805a13.028,13.028,0,0,1,.044-1.82c.029-.012.028-.015,0-.017a.056.056,0,0,0-.052.034M9.848,2.545a.241.241,0,0,0,.1,0c.028-.007.005-.013-.051-.013s-.079.006-.051.013M23.7,4.311c0,.845,0,1.191.008.769s0-1.114,0-1.537-.008-.077-.008.769M.645,3.044l-.1.11.11-.1a1,1,0,0,0,.11-.11c0-.022-.025,0-.119.1M25.753,5.013a7.99,7.99,0,1,0,.008.9c0-.5,0-1.305,0-1.8a7.988,7.988,0,1,0-.008.9m-.766-1.522c0,.089.005.125.012.08a.645.645,0,0,0,0-.161c-.007-.044-.012-.008-.012.081M13.976,3.461c0,.056.006.079.013.051a.241.241,0,0,0,0-.1c-.007-.028-.013-.005-.013.051m1.113.088c0,.056.006.079.013.051a.241.241,0,0,0,0-.1c-.007-.028-.013-.005-.013.051m.034.468c0,.185,0,.261.011.168a3.261,3.261,0,0,0,0-.337c-.006-.093-.011-.017-.011.168m1.973-.242a.775.775,0,0,0,.176,0c.044-.007,0-.012-.1-.012s-.133.006-.08.012m-4.489.132-.086.1.1-.086c.089-.08.109-.1.086-.1a.733.733,0,0,0-.1.1m6.7.2c0,.169,0,.238.011.154a2.648,2.648,0,0,0,0-.307c-.006-.085-.011-.015-.011.154m-7.821-.243a.241.241,0,0,0,.1,0c.028-.007.005-.013-.051-.013s-.079.006-.051.013m10.675.163a.132.132,0,0,0,.1.016c.059-.009.054-.013-.027-.027-.058-.01-.085-.005-.069.011m-1.774.131a.526.526,0,0,0,.146,0c.036-.007,0-.013-.081-.012s-.11.006-.065.013m2.664,0a.241.241,0,0,0,.1,0c.028-.007.005-.013-.051-.013s-.079.006-.051.013m-3.072.229c0,.129.005.178.011.109a1.47,1.47,0,0,0,0-.234c-.006-.06-.011,0-.011.125m.715-.2a.419.419,0,0,0,.132,0c.036-.007.007-.013-.066-.013s-.1.006-.066.013m.254.492c0,.274,0,.39.01.258s.005-.356,0-.5-.01-.034-.01.24m-5.861-.19c0,.056.006.079.013.051a.241.241,0,0,0,0-.1c-.007-.028-.013-.005-.013.051m-1.113.088c0,.056.006.079.013.051a.241.241,0,0,0,0-.1c-.007-.028-.013-.005-.013.051m16.543.044c0,.064.006.087.013.051a.32.32,0,0,0,0-.117c-.007-.028-.013,0-.013.066M.806,5.277c0,.411,0,.579.009.373s.005-.541,0-.747-.009-.037-.009.373m12.146-.41c0,.072.006.1.013.066a.414.414,0,0,0,0-.132c-.007-.036-.013-.007-.013.066m12.035.366c0,.1.006.133.012.08a.779.779,0,0,0,0-.176c-.007-.044-.012,0-.012.1M1.827,5.262c0,.1.006.133.012.08a.775.775,0,0,0,0-.176c-.007-.044-.012,0-.012.1m25.5.19c0,.185,0,.261.011.168a3.262,3.262,0,0,0,0-.337c-.006-.093-.011-.017-.011.168M1.271,5.408c0,.1.006.133.012.08a.775.775,0,0,0,0-.176c-.007-.044-.012,0-.012.1m29.252.351c0,.242,0,.336.01.211s.005-.323,0-.439-.01-.013-.01.228M.13,5.731c0,.129.005.178.011.109a1.46,1.46,0,0,0,0-.234c-.006-.06-.011,0-.011.125m1.726.132c0,.089.005.125.012.081a.645.645,0,0,0,0-.161c-.007-.044-.012-.008-.012.08m.971.981c0,.58,0,.821.009.536s0-.759,0-1.054-.009-.062-.009.518m23.451-.5c0,.306,0,.427.01.269s.005-.408,0-.556-.01-.019-.01.287m-8.086-.434a.239.239,0,0,0,.1,0c.028-.007.005-.013-.051-.013s-.079.006-.051.013m5.507.214c0,.137.005.193.011.124a1.692,1.692,0,0,0,0-.249c-.006-.068-.011-.012-.011.124M11.195,6a.645.645,0,0,0,.161,0c.044-.007.008-.012-.081-.012s-.125.005-.08.012m8.74,0a.418.418,0,0,0,.132,0c.036-.007.007-.013-.066-.013s-.1.006-.066.013M9.863,6.146a.319.319,0,0,0,.117,0c.028-.007,0-.013-.066-.013s-.087.006-.051.013M22,6.146a.241.241,0,0,0,.1,0c.028-.007.005-.013-.051-.013s-.079.006-.051.013m9.019.155c0,.089.005.125.012.081a.652.652,0,0,0,0-.161c-.007-.044-.012-.008-.012.08M8.883,6.284c.007.073.079.1.078.027,0-.042-.006-.045-.026-.013s-.029.03-.042-.015-.016-.054-.01,0M.159,6.55c0,.129.005.178.011.109a1.46,1.46,0,0,0,0-.234c-.006-.06-.011,0-.011.125m7-.023c0,.051.015.083.028.071s.01-.055-.005-.094c-.026-.066-.028-.065-.023.023M.832,6.638c0,.1.006.133.012.08a.779.779,0,0,0,0-.176c-.007-.044-.012,0-.012.1m1.052,0c0,.064.006.087.013.051a.321.321,0,0,0,0-.117c-.007-.028-.013,0-.013.066M16,6.557a.645.645,0,0,0,.161,0c.044-.007.008-.012-.081-.012s-.125.005-.08.012m14.5.2c0,.129.005.178.011.109a1.46,1.46,0,0,0,0-.234c-.006-.06-.011,0-.011.125m-13.939-.17a.238.238,0,0,0,.1,0c.028-.007.005-.013-.051-.013s-.079.006-.051.013M1.3,6.9c0,.129.005.178.011.109a1.47,1.47,0,0,0,0-.234c-.006-.06-.011,0-.011.125m29.688.029c0,.113.005.155.012.095a1.1,1.1,0,0,0,0-.2c-.006-.052-.012,0-.012.11m-30.8.234c0,.1.006.133.012.08a.778.778,0,0,0,0-.176c-.007-.044-.012,0-.012.1m14.175.022-.086.1.1-.086c.089-.08.109-.1.086-.1a.72.72,0,0,0-.1.1M1.913,7.37c0,.064.006.087.013.051a.319.319,0,0,0,0-.117c-.007-.028-.013,0-.013.066M.859,7.4c0,.064.006.087.013.051a.32.32,0,0,0,0-.117c-.007-.028-.013,0-.013.066m18.168-.082a.319.319,0,0,0,.117,0c.028-.007,0-.013-.066-.013s-.087.006-.051.013M30.46,7.4c0,.064.006.087.013.051a.321.321,0,0,0,0-.117c-.007-.028-.013,0-.013.066m.5.073c0,.089.005.125.012.08a.645.645,0,0,0,0-.161c-.007-.044-.012-.008-.012.081M15.813,7.423a.733.733,0,0,0,.1.1L16,7.6l-.086-.1c-.08-.089-.1-.109-.1-.086m-15.6.269c0,.064.006.087.013.051a.321.321,0,0,0,0-.117c-.007-.028-.013,0-.013.066m1.142.249c0,.073.006.1.013.066a.414.414,0,0,0,0-.132c-.007-.036-.013-.007-.013.066m.586,0c0,.073.006.1.013.066a.419.419,0,0,0,0-.132c-.007-.036-.013-.007-.013.066M.889,7.985c0,.064.006.087.013.051a.319.319,0,0,0,0-.117c-.007-.028-.013,0-.013.066M30.43,7.97c0,.056.006.079.013.051a.241.241,0,0,0,0-.1c-.007-.028-.013-.005-.013.051M1.386,8.292c0,.056.006.079.013.051a.241.241,0,0,0,0-.1c-.007-.028-.013-.005-.013.051m.587.132c0,.081.006.11.013.065a.52.52,0,0,0,0-.146c-.007-.036-.012,0-.012.081m16.746-.11c.109.006.287.006.4,0s.02-.01-.2-.01-.306,0-.2.01m-1.669.029c.173.005.456.005.629,0s.031-.009-.315-.009-.488,0-.315.009m-16.133.1c0,.056.006.079.013.051a.239.239,0,0,0,0-.1c-.007-.028-.013-.005-.013.051m15.152.255a1.092,1.092,0,0,0,.2,0c.061-.006.018-.012-.095-.012s-.162.005-.11.012M.947,8.8c0,.064.006.087.013.051a.319.319,0,0,0,0-.117c-.007-.028-.013,0-.013.066M2,8.79c0,.056.006.079.013.051a.241.241,0,0,0,0-.1C2.007,8.711,2,8.734,2,8.79M16.89,8.723a.32.32,0,0,0,.117,0c.028-.007,0-.013-.066-.013s-.087.006-.051.013m.644.029a.419.419,0,0,0,.132,0c.036-.007.007-.013-.066-.013s-.1.006-.066.013m.791.03c.1.006.265.006.366,0s.018-.01-.183-.01-.284,0-.183.01m1.113,0a.321.321,0,0,0,.117,0c.028-.007,0-.013-.066-.013s-.087.006-.051.013m1.529-.012a.733.733,0,0,0,.1.1l.1.086-.086-.1c-.08-.089-.1-.109-.1-.086m9.405.079c0,.056.006.079.013.051a.241.241,0,0,0,0-.1c-.007-.028-.013-.005-.013.051M.3,9c0,.056.006.079.013.051a.241.241,0,0,0,0-.1C.308,8.916.3,8.939.3,9m30.041.161c0,.064.006.087.013.051a.319.319,0,0,0,0-.117c-.007-.028-.013,0-.013.066m.5.015c0,.056.006.079.013.051a.241.241,0,0,0,0-.1c-.007-.028-.013-.005-.013.051m-.029.264c0,.056.006.079.013.051a.241.241,0,0,0,0-.1c-.007-.028-.013-.005-.013.051M1.5,9.581c0,.056.006.079.013.051a.241.241,0,0,0,0-.1C1.509,9.5,1.5,9.524,1.5,9.581m.615.761c0,.056.006.079.013.051a.241.241,0,0,0,0-.1c-.007-.028-.013-.005-.013.051m15.87.322c0,.072.006.1.013.066a.419.419,0,0,0,0-.132c-.007-.036-.013-.007-.013.066m1.1.805a.638.638,0,0,0,.114.1c.008,0-.03-.046-.085-.1a.636.636,0,0,0-.114-.1c-.008,0,.03.046.085.1M17.636,13.29a.241.241,0,0,0,.1,0c.028-.007.005-.013-.051-.013s-.079.006-.051.013m-.885.759c0,.067.084.1.224.091l.141-.011-.152-.005c-.11,0-.161-.019-.182-.057s-.03-.036-.031-.018m6.071.465c0,.177,0,.246.011.153a2.944,2.944,0,0,0,0-.322c-.006-.084-.011-.008-.011.169m-10.05.671a.251.251,0,0,1-.053.117c-.048.059-.048.059.017,0a.134.134,0,0,0,.054-.117c-.014-.053-.014-.052-.018,0m7.206.515c0,.056.006.079.013.051a.239.239,0,0,0,0-.1c-.007-.028-.013-.005-.013.051m-6.171.154-.116.124.124-.116c.116-.108.138-.133.116-.133a1.3,1.3,0,0,0-.124.124m8.748.373c0,.056.006.079.013.051a.241.241,0,0,0,0-.1c-.007-.028-.013-.005-.013.051M17.9,17.515c0,.073.006.1.013.066a.418.418,0,0,0,0-.132c-.007-.036-.013-.007-.013.066m3.857.161a.638.638,0,0,0,.114.1c.008,0-.03-.046-.085-.1a.639.639,0,0,0-.114-.1c-.008,0,.03.046.085.1m.761.117a2.01,2.01,0,0,0,.2.19,1.493,1.493,0,0,0-.174-.19,2.02,2.02,0,0,0-.2-.19,1.5,1.5,0,0,0,.174.19m.446-.1c0,.056.006.079.013.051a.241.241,0,0,0,0-.1c-.007-.028-.013-.005-.013.051m-11.359.1c0,.081.006.11.013.066a.523.523,0,0,0,0-.146c-.007-.036-.012,0-.012.081m5.243.2c0,.161.005.223.011.138a2.4,2.4,0,0,0,0-.293c-.006-.076-.011-.006-.011.155m-2.067-.169a.779.779,0,0,0,.176,0c.044-.007,0-.012-.1-.012s-.133.006-.08.012m2.679.556a.523.523,0,0,0,.146,0c.036-.007,0-.012-.081-.012s-.11.006-.065.013m5.907.017a.733.733,0,0,0,.1.1l.1.086-.086-.1c-.08-.089-.1-.109-.1-.086m.594.276a2.963,2.963,0,0,0,.322,0c.084-.006.008-.011-.169-.011s-.246,0-.153.011m.708.146a.335.335,0,0,1,.171.047c.017.024.021.021.013-.009s-.056-.045-.171-.047l-.159,0,.146.012m-8.111.221-.086.1.1-.086a.733.733,0,0,0,.1-.1c0-.023-.024,0-.1.086m.923.19-.1.11.11-.1c.1-.094.123-.119.1-.119a1,1,0,0,0-.11.11m7.217.015-.086.1.1-.086a.733.733,0,0,0,.1-.1c0-.023-.024,0-.1.086m-.87.16a1.1,1.1,0,0,0,.2,0c.061-.006.018-.012-.095-.012s-.162.005-.11.012m-.2.264a.778.778,0,0,0,.176,0c.044-.007,0-.012-.1-.012s-.133.006-.08.012m-6.866,1.047c0,.064.006.087.013.051a.319.319,0,0,0,0-.117c-.007-.028-.013,0-.013.066m3.577.315-.086.1.1-.086a.733.733,0,0,0,.1-.1c0-.023-.024,0-.1.086m-3.107.183c0,.1.006.133.012.08a.783.783,0,0,0,0-.176c-.007-.044-.012,0-.012.1m4.595.22c0,.056.006.079.013.051a.241.241,0,0,0,0-.1c-.007-.028-.013-.005-.013.051m0,.307c0,.1.006.133.012.08a.775.775,0,0,0,0-.176c-.007-.044-.012,0-.012.1m-9.928.337c0,.056.006.079.013.051a.241.241,0,0,0,0-.1c-.007-.028-.013-.005-.013.051m2.26.505-.086.1.1-.086c.089-.08.109-.1.086-.1a.733.733,0,0,0-.1.1m5.558.051c0,.072.006.1.013.066a.414.414,0,0,0,0-.132c-.007-.036-.013-.007-.013.066m-6.085.007-.086.1.1-.086c.089-.08.109-.1.086-.1a.727.727,0,0,0-.1.1m-3.138.335a.241.241,0,0,0,.1,0c.028-.007.005-.013-.051-.013s-.079.006-.051.013m6.588.2c0,.064.006.087.013.051a.319.319,0,0,0,0-.117c-.007-.028-.013,0-.013.066m-6.348.49-.116.124.124-.116c.116-.108.138-.133.116-.133a1.3,1.3,0,0,0-.124.124m11.084.036a.092.092,0,0,0-.02.081c.009.023.016.018.017-.015a.107.107,0,0,1,.068-.079c.045-.018.05-.027.018-.028a.12.12,0,0,0-.083.041m-6.26.133c0,.056.006.079.013.051a.239.239,0,0,0,0-.1c-.007-.028-.013-.005-.013.051m2.489-.038a.241.241,0,0,0,.1,0c.028-.007.005-.013-.051-.013s-.079.006-.051.013m4.421.029a.241.241,0,0,0,.1,0c.028-.007.005-.013-.051-.013s-.079.006-.051.013m.351.1c0,.056.006.079.013.051a.241.241,0,0,0,0-.1c-.007-.028-.013-.005-.013.051m-7.919.2a.419.419,0,0,0,.132,0c.036-.007.007-.013-.066-.013s-.1.006-.066.013m7.349.2a.321.321,0,0,0,.117,0c.028-.007,0-.013-.066-.013s-.087.006-.051.013m-13.042.462c0,.1.006.133.012.08a.784.784,0,0,0,0-.176c-.007-.044-.012,0-.012.1m3.881.184c-.01.058-.005.085.011.069a.132.132,0,0,0,.016-.1c-.009-.059-.013-.054-.027.027m-2.829.329c0,.072.006.1.013.066a.419.419,0,0,0,0-.132c-.007-.036-.013-.007-.013.066M9,25.319a.367.367,0,0,0-.1.11c-.024.046,0,.036.073-.037.1-.093.119-.119.1-.119A.457.457,0,0,0,9,25.319m3.221.063a.645.645,0,0,0,.161,0c.044-.007.008-.012-.08-.012s-.125.005-.081.012m-1.96.433c0,.1.006.133.012.08a.778.778,0,0,0,0-.176c-.007-.044-.012,0-.012.1m-.814,3.47a.818.818,0,0,0,.129.117.51.51,0,0,0-.1-.117.814.814,0,0,0-.129-.117.51.51,0,0,0,.1.117m12.4.015a.668.668,0,0,0-.115.132,1.012,1.012,0,0,0,.144-.132.667.667,0,0,0,.115-.132,1.015,1.015,0,0,0-.144.132m.393.4-.086.1.1-.086a.733.733,0,0,0,.1-.1c0-.023-.024,0-.1.086m-1.1.337-.278.285.285-.278c.157-.153.286-.281.286-.285,0-.021-.036.012-.293.278M9.107,29.907c.121.129.148.153.148.131a1.654,1.654,0,0,0-.139-.139l-.139-.13.131.139m1,.066a2.014,2.014,0,0,0,.2.19,1.5,1.5,0,0,0-.174-.19,2.014,2.014,0,0,0-.2-.19,1.5,1.5,0,0,0,.174.19m11.7.2-.2.212.212-.2c.2-.19.226-.22.2-.22,0,0-.1.1-.212.212M9.884,30.72c.193.193.357.351.365.351s-.143-.158-.336-.351-.357-.351-.365-.351.143.158.336.351m1.1.1a1.648,1.648,0,0,0,.139.139c.022,0,0-.026-.131-.148l-.139-.131.13.139m9.312.037a.667.667,0,0,0-.115.132,1.008,1.008,0,0,0,.144-.132.665.665,0,0,0,.115-.132,1.013,1.013,0,0,0-.144.132m.438.388-.16.168.168-.16c.156-.149.182-.177.16-.177,0,0-.08.076-.168.168M11.3,31.11a.733.733,0,0,0,.1.1l.1.086-.086-.1c-.08-.089-.1-.109-.1-.086m8.621.086-.086.1.1-.086a.733.733,0,0,0,.1-.1c0-.023-.024,0-.1.086m-9.237.293a1.646,1.646,0,0,0,.139.139c.022,0,0-.026-.131-.148l-.139-.131.131.139m8.915,0-.086.1.1-.086a.733.733,0,0,0,.1-.1c0-.023-.024,0-.1.086m.615.234-.086.1.1-.086a.733.733,0,0,0,.1-.1c0-.023-.024,0-.1.086" transform="translate(-0.12 -0.056)" fill="#848484" fill-rule="evenodd"/>
    </g>
    <path id="lamborghini-logo-1" d="M21.98,0a11.734,11.734,0,0,0-4.938,1.261,8.991,8.991,0,0,0-3.3,3.656c-.046.213-4.832,9.5-4.832,9.5-6.067-1.755-9,1.8-8.908,3.173,1.466,3.677,8.634,1.061,9.35.21a.547.547,0,0,1,.651.042s1.755,1.169,1.954,1.261a4.789,4.789,0,0,0,1.2-.042c.777-.059,2.164-1.582,2.332-1.6.259,0,.572,1.687,1.639,1.66,1.28.247,2.668-1.2,2.668-1.2.183-.259.252-.063.252-.063-.029,1.585,1.258,1.305,1.639,1.261,1.265-.515,4.363-3.567,4.013-2.668-.122.244-1.072,2.017-1.072,2.017-.106.472.231.441.231.441l2.227-.021a42.119,42.119,0,0,0,2.1-3.845,4.2,4.2,0,0,1,2.29-1.723c.152-.045.084.168.084.168l-2.605,5.169c-.045.137.21.273.21.273l2.269-.042c.3-.029,2.206-3.929,2.206-3.929.517-.989,2.353-1.555,2.353-1.555.335-.06.1.273.1.273l-1.786,3.74c-.271,1.7,1.155,1.8,1.765,1.723.61-.09,1.6-.433,3.551-1.891.4-.3.483,0,.483.063.017,2.088,2.311,1.849,2.311,1.849.686.17,3.47.1,5.8-4.538-.851,3.153.884,4.011.946,4.118a2.588,2.588,0,0,0,1.345.357c3.552.315,5.043-5.211,5.043-5.211a11.753,11.753,0,0,1,1.324-.946c.793.078,1.006.1,1.387.147.3.108.029.392-.063.483-3.625,2.825-2.034,5-1.912,4.959,1.587,2.153,4.88-1.6,5.5-1.66.795,3.173,3.213,1.792,3.32,1.807a27.523,27.523,0,0,1-1.366,3.173c-1.112,1.567-2.857-.189-2.857-.189l-.441-.021a.627.627,0,0,0-.084.588,3.573,3.573,0,0,0,2.857,2c1.829.081,2.878-1.933,2.878-1.933S68.666,17.562,68.834,17c.777-.7,2.125-1.708,3.131-2.437.655-.135-1.64,3.606-1.807,4.139-.046.3.063.315.063.315s1.745.087,2.08.042,1.964-3.913,2.542-4.643A6.225,6.225,0,0,1,76.965,12.8c.351-.075.231.336.231.336L75.053,17.46c-.517,1.812.938,1.821,1.2,1.807a17.146,17.146,0,0,0,3.32-1.555c.366-.273.357.168.357.168-.03.579.6,1.528,1.113,1.408,1.86.173,4.672-2.916,4.748-2.626.016.061-1.051,2.164-1.051,2.164a.453.453,0,0,0,.231.252s1.8.02,2.227.021,2.368-4.638,2.794-4.9a2.958,2.958,0,0,1,1.849-.966c.32-.014-1.812,3.391-1.933,4.076-.471,1.965.924,1.933.924,1.933,1.113.171,3.841-1.765,3.887-1.6.32-.319.357.063.357.063v.147c.184,1.586,1.114,1.408,1.114,1.408,1.067.277,5.232-3.215,5.232-3.215l-.63-.693L98.185,17.25a.258.258,0,0,1-.336-.126l2.921-5.631c.137-.137-.063-.294-.063-.294H98.08c-.183.2-.294.336-.294.336l-2.374,4.622-2.605,1.282c-.274.075-.21-.21-.21-.21s2.171-4.26,2.353-4.854a1.629,1.629,0,0,0,.063-.714c-.718-1.664-3.617.49-4.013.5-.015.015.357-.756.357-.756.107-.228-.1-.231-.1-.231l-2.437-.021s.007-.173-.084-.021-1.66,3.089-1.66,3.089l-3.929,2.962c-.335.06-.252-.168-.252-.168l2.878-5.568.021-.231-2.773-.063-2.29,4.412c-.122.137-2.521,1.492-2.521,1.492-.366.106-.378-.21-.378-.21l2.122-4.118c.481-1.607-1.275-2.079-2.143-1.765-.587.212-1.135.4-1.135.4s-.173.045-.021-.168c.259-.365,2.941-5.673,2.941-5.673a.219.219,0,0,0-.084-.252L77.07,5.253a.387.387,0,0,0-.231.231L73.372,12.06,70.514,14.2c-.183.121-.189-.084-.189-.084l1.429-2.71v-.273l-2.563-.021-.42.336c-.29-.611-1.761-.6-1.807-.588-3.079-.1-4.811,4.265-4.811,4.265-1.713,1.485-2.5,1.947-3.067,2.038a.6.6,0,0,1-.609-.357c-.652-2,3.446-3.887,3.446-3.887a7.279,7.279,0,0,0,.651-1.849c-.076,0-5.039-.006-5.085-.021-.275-.107-1.6,1.14-2,1.429-1.161-3.4-5.658-.829-6.282.693a1.342,1.342,0,0,1-.525.021c.045-1.158-.109-1.88-.84-2.248a6.229,6.229,0,0,0-2.017,0l2.752-5.484c.137-.167-.126-.336-.126-.336H45.974a1.12,1.12,0,0,0-.231.21s-4.685,9.073-4.959,9.56-3.7,2.311-3.7,2.311c.03-.335,2.235-4.17,2.311-4.916.09-1.935-2.122-1.324-2.122-1.324a27.609,27.609,0,0,1-2.4,1.408,1.476,1.476,0,0,0-2.1-1.387l-2.1,1.366.378-.987.084-.378-2.521-.063a5.747,5.747,0,0,0-.8,1.366l-.8,1.471-3.593,2.71c-.35.2-.168-.273-.168-.273s2.426-4.758,2.479-4.791c.2-.121.042-.42.042-.42l-2.437-.021a8.064,8.064,0,0,1-.5.777c-1.16-1.634-4.986-.971-7.039,3.866a2.3,2.3,0,0,1-.609.609c-2.406,2.813-3.782.021-3.782.021l4.307-8.215s1.96-4.384,3.194-5.631c3.123-2.11,4.013-.126,4.013-.126.27.625,1.093,2.883-3.152,3.971-.557.055-.378.315-.378.315a4.165,4.165,0,0,0,2.752.946c1.494.294,5.542-1.934,4.076-5.5A5.154,5.154,0,0,0,21.98,0Zm64.1,5.568A1.692,1.692,0,0,0,86,8.951a1.692,1.692,0,1,0,.084-3.383Zm15.149,0a1.693,1.693,0,1,0,.042,3.383,1.693,1.693,0,0,0-.042-3.383Zm-79.5,6.366c.712.016.588.87.462,1.03a13.9,13.9,0,0,1-1.24,2.479C19.427,17.344,18.7,17,18.7,17s-.522-.072-.126-1.092A29.684,29.684,0,0,1,20.7,12.249a2.277,2.277,0,0,1,1.03-.315Zm23.889.21c.747.094.378.777.378.777l-2.059,4.055c-.655.806-1.261.525-1.261.525-.335-.245.231-1.177.231-1.177l1.933-3.782a1.2,1.2,0,0,1,.777-.4Zm21.431.021a.758.758,0,0,1,.82.378,1.273,1.273,0,0,1-.042.5A38.616,38.616,0,0,1,65.85,16.83a1.659,1.659,0,0,1-1.429.609c-.381-.108-.231-.672-.231-.672s1.464-3,2.164-4.265A1.7,1.7,0,0,1,67.048,12.165Zm-14.014.021c.322-.054.628.078.567.756-.38.807-1.881,3.77-2.185,4.181-.061.351-1.593.922-1.2-.357,0,0,2.149-4.019,2.164-4.2.008-.092.329-.324.651-.378Zm-48.388,3.3a7.476,7.476,0,0,1,2.4.378s-.294.979-3.068,1.429c-1.311-.079-2-.074-2-.546a3.135,3.135,0,0,1,2.668-1.261Z" transform="translate(-6946 -5149)"/>
  </g>
</svg>
